/* XPM */
static char * BDa_xpm[] = {
"50 50 162 2",
"  	c None",
". 	c #CCCCCC",
"+ 	c #CBCBCB",
"@ 	c #CACACA",
"# 	c #B4B4B4",
"$ 	c #A2A2A2",
"% 	c #C3C3C3",
"& 	c #ABABAB",
"* 	c #ACACAC",
"= 	c #B1B1B1",
"- 	c #B6B6B6",
"; 	c #BABABA",
"> 	c #BEBEBE",
", 	c #B2B2B2",
"' 	c #717171",
") 	c #414141",
"! 	c #8D8D8D",
"~ 	c #C2C2C2",
"{ 	c #5C5C5C",
"] 	c #4A4A4A",
"^ 	c #535353",
"/ 	c #676767",
"( 	c #8C8C8C",
"_ 	c #272727",
": 	c #020202",
"< 	c #333333",
"[ 	c #AFAFAF",
"} 	c #474747",
"| 	c #010101",
"1 	c #101010",
"2 	c #6D6D6D",
"3 	c #C1C1C1",
"4 	c #000000",
"5 	c #0E0E0E",
"6 	c #737373",
"7 	c #BFBFBF",
"8 	c #7C7C7C",
"9 	c #292929",
"0 	c #A8A8A8",
"a 	c #3D3D3D",
"b 	c #121212",
"c 	c #797979",
"d 	c #C4C4C4",
"e 	c #939393",
"f 	c #050505",
"g 	c #A5A5A5",
"h 	c #373737",
"i 	c #151515",
"j 	c #808080",
"k 	c #C5C5C5",
"l 	c #C0C0C0",
"m 	c #919191",
"n 	c #404040",
"o 	c #A1A1A1",
"p 	c #1B1B1B",
"q 	c #868686",
"r 	c #C6C6C6",
"s 	c #9D9D9D",
"t 	c #2E2E2E",
"u 	c #1E1E1E",
"v 	c #C8C8C8",
"w 	c #989898",
"x 	c #2A2A2A",
"y 	c #232323",
"z 	c #929292",
"A 	c #C9C9C9",
"B 	c #262626",
"C 	c #282828",
"D 	c #979797",
"E 	c #8F8F8F",
"F 	c #222222",
"G 	c #9C9C9C",
"H 	c #C7C7C7",
"I 	c #8A8A8A",
"J 	c #1C1C1C",
"K 	c #858585",
"L 	c #181818",
"M 	c #383838",
"N 	c #7F7F7F",
"O 	c #141414",
"P 	c #3E3E3E",
"Q 	c #AAAAAA",
"R 	c #7A7A7A",
"S 	c #111111",
"T 	c #444444",
"U 	c #ADADAD",
"V 	c #757575",
"W 	c #0D0D0D",
"X 	c #494949",
"Y 	c #0C0C0C",
"Z 	c #505050",
"` 	c #B5B5B5",
" .	c #6E6E6E",
"..	c #090909",
"+.	c #040404",
"@.	c #565656",
"#.	c #B8B8B8",
"$.	c #0B0B0B",
"%.	c #5E5E5E",
"&.	c #BBBBBB",
"*.	c #707070",
"=.	c #060606",
"-.	c #646464",
";.	c #777777",
">.	c #0F0F0F",
",.	c #6B6B6B",
"'.	c #878787",
").	c #818181",
"!.	c #212121",
"~.	c #787878",
"{.	c #131313",
"].	c #030303",
"^.	c #171717",
"/.	c #8B8B8B",
"(.	c #909090",
"_.	c #3F3F3F",
":.	c #BDBDBD",
"<.	c #AEAEAE",
"[.	c #A4A4A4",
"}.	c #9F9F9F",
"|.	c #9E9E9E",
"1.	c #A3A3A3",
"2.	c #969696",
"3.	c #848484",
"4.	c #7E7E7E",
"5.	c #686868",
"6.	c #616161",
"7.	c #515151",
"8.	c #4B4B4B",
"9.	c #464646",
"0.	c #3A3A3A",
"a.	c #363636",
"b.	c #313131",
"c.	c #2D2D2D",
"d.	c #434343",
"e.	c #1F1F1F",
"f.	c #080808",
"g.	c #343434",
"h.	c #393939",
"i.	c #A6A6A6",
"j.	c #242424",
"k.	c #484848",
"l.	c #9B9B9B",
"m.	c #070707",
"n.	c #202020",
"o.	c #303030",
"p.	c #3C3C3C",
"q.	c #4F4F4F",
"r.	c #636363",
"s.	c #696969",
"t.	c #BCBCBC",
"u.	c #353535",
"v.	c #4E4E4E",
"w.	c #555555",
"x.	c #626262",
"y.	c #767676",
"z.	c #838383",
"A.	c #898989",
"B.	c #959595",
"C.	c #A9A9A9",
"D.	c #B7B7B7",
"E.	c #B0B0B0",
". . . . . . . . . . . . . . . . . . . . . . . . . . . . . . . . . . . . . . . . . . . . . . . . . . ",
". . . . . . . . . . . . . . . . . . . . . . . . . . . . . . . . . . . . . . . . . . . . . . . . . . ",
". . . . . . . . . . . . . . . . . . . . . . . . . . . . . . . . . . . . . . . . . . . . . . . . . . ",
". . . . . . . . . . . . . . . . . . . . . . . . . . . . . . . . . . . . . . . . . . . . . . . . . . ",
". . . . . . . . . . . . . . . . . . . . . . . . . . . . . . . . . . . . . . . . . . . . . . . . . . ",
". . . . . . . . . . . . . . . . . . . . . . . . . . . . . . . . . . . . . . . . . . . . . . . . . . ",
". . . . . . . . . . . + @ . . . . . . . . . . . . . . . . . . . . . . . + + + . . . . . . . . . . . ",
". . . . . . . . . . @ # $ % . . . . . . . . . . . . . . . . . . . . . % & * = - ; > % + . . . . . . ",
". . . . . . . . . @ , ' ) ! ~ . . . . . . . . . . . . . . . . . . . . # { ) ] ^ { / ( ~ . . . . . . ",
". . . . . . . . @ , ' _ : < ! % . . . . . . . . . . . . . . . . . . + [ } : | | : 1 2 3 . . . . . . ",
". . . . . . . @ , ' _ | 4 : < ! ~ . . . . . . . . . . . . . . . . . + * ) | 4 4 4 5 6 ~ . . . . . . ",
". . . . . . . 7 8 9 | 4 4 4 : < ! % . . . . . . . . . . . . . . . . + 0 a | 4 4 4 b c d . . . . . . ",
". . . . . . . % e ) f 4 4 4 4 | < ! % . . . . . . . . . . . . . . . @ g h 4 4 4 4 i j k . . . . . . ",
". . . . . . . + l m n f 4 4 4 4 : < ! ~ . . . . . . . . . . . . . . @ o < 4 4 4 4 p q r . . . . . . ",
". . . . . . . . + l m n f 4 4 4 4 | < ! % . . . . . . . . . . . . . @ s t 4 4 4 4 u ( v . . . . . . ",
". . . . . . . . . + l m ) f 4 4 4 4 : < ! ~ . . . . . . . . . . . . @ w x 4 4 4 4 y z A . . . . . . ",
". . . . . . . . . . + l m n f 4 4 4 4 : < ! % . . . . . . . . . . . A e B 4 4 4 4 C D A . . . . . . ",
". . . . . . . . . . . + l m ) f 4 4 4 4 | < ! % . . . . . . . . . . v E F 4 4 4 4 t G A . . . . . . ",
". . . . . . . . . . . . + l m n f 4 4 4 4 : < ! ~ . . . . . . . . . H I J 4 4 4 4 < o @ . . . . . . ",
". . . . . . . . . . . . . + l m n f 4 4 4 4 | < ! % . . . . . . . . H K L 4 4 4 4 M g + . . . . . . ",
". . . . . . . . . . . . . . + l m ) f 4 4 4 4 : < ! ~ . . . . . . . k N O 4 4 4 4 P Q + . . . . . . ",
". . . . . . . . . . . . . . . + l m n f 4 4 4 4 : < ! % . . . . . . d R S 4 4 4 | T U + . . . . . . ",
". . . . . . . . . . . . . . . . + l m ) f 4 4 4 4 | < ! % . . . . . % V W 4 4 4 | X = + . . . . . . ",
". . . . . . . . . . . . . . . . . + l m n f 4 4 4 4 : < ! ~ . . . . ~ ' Y 4 4 4 | Z ` . . . . . . . ",
". . . . . . . . . . . . . . . . . . + l m n f 4 4 4 4 | < ! % . . . 3  ...4 4 4 +.@.#.. . . . . . . ",
". . . . . . . . . . . . . . . . . . . + l m ) f 4 4 4 4 : < ! ~ . . 3  .$.4 4 4 +.%.&.. . . . . . . ",
". . . . . . . . . . . . . . . . . . . . + l m n f 4 4 4 4 : < ! % . ~ *.$.4 4 4 =.-.> . . . . . . . ",
". . . . . . . . . . . . . . . . . . . . . + l m ) f 4 4 4 4 | < ! % % ;.>.4 4 4 ..,.l . . . . . . . ",
". . . . . . . . . . . . . . . . . . . . . . + l m n f 4 4 4 4 : < ! &.j i 4 4 4 W ' ~ . . . . . . . ",
". . . . . . . . . . . . . . . . . . . . . . . + l m n f 4 4 4 4 | < '.).!.4 4 4 5 ~.d . . . . . . . ",
". . . . . . . . . . . . . . . . . . . . . . . . + l m ) f 4 4 4 4 | 9 } L 4 4 4 {.N k . . . . . . . ",
". . . . . . . . . . . . . . . . . . . . . . . . . + l m n f 4 4 4 4 4 ].4 4 4 4 ^.K r . . . . . . . ",
". . . . . . . . . . . . . . . . . . . . . . . . . . + l m ) f 4 4 4 4 4 4 4 4 4 J /.v . . . . . . . ",
". . . . . . . . . . . . . . . . . . . . + + + + @ @ @ @ > (._.+.4 4 4 4 4 4 4 4 F m A . . . . . . . ",
". . . . . . . + v r k d % 3 7 :.; #.` , <.& 0 [.o }.|.}.1.|.6 y 4 4 4 4 4 4 4 4 _ 2.A . . . . . . . ",
". . . . . . . r |.3.4.c 6 2 5.6.{ @.7.8.9.n 0.a.b.t c.t a.d.P ^.4 4 4 4 4 4 4 4 c.G @ . . . . . . . ",
". . . . . . . d R e.i b 5 $.f.f ].: : : : 4 4 4 4 4 4 4 4 | : 4 4 4 4 4 4 4 4 4 g.o @ . . . . . . . ",
". . . . . . . r ).i 4 4 4 4 4 4 4 4 4 4 4 4 4 4 4 4 4 4 4 4 4 4 4 4 4 4 4 4 4 4 h.i.+ . . . . . . . ",
". . . . . . . H I p 4 4 4 4 4 4 4 4 4 4 4 4 4 4 4 4 4 4 4 4 4 4 4 4 4 4 4 4 4 | _.Q + . . . . . . . ",
". . . . . . . A e j.4 4 4 4 4 4 4 4 4 4 4 4 4 4 4 4 4 4 | | | : : ].+.=...W S O k.<.+ . . . . . . . ",
". . . . . . . @ l.c.| 4 4 | : : +.+.m...>.O L J n.j.x o.a.p.d.] q.@.{ r.s.*.V 8 ! t.+ . . . . . . . ",
". . . . . . . + g } u.p.) k.v.w.{ x.s. .y.8 z.A.E B.l.}.g C.U = # D.; :.7 3 % k r @ . . . . . . . . ",
". . . . . . . . t.1.[.C.* E.# D.; :.7 3 % k H v v A @ @ + + + . . . . . . . . . . . . . . . . . . . ",
". . . . . . . . + @ + + + + . . . . . . . . . . . . . . . . . . . . . . . . . . . . . . . . . . . . ",
". . . . . . . . . . . . . . . . . . . . . . . . . . . . . . . . . . . . . . . . . . . . . . . . . . ",
". . . . . . . . . . . . . . . . . . . . . . . . . . . . . . . . . . . . . . . . . . . . . . . . . . ",
". . . . . . . . . . . . . . . . . . . . . . . . . . . . . . . . . . . . . . . . . . . . . . . . . . ",
". . . . . . . . . . . . . . . . . . . . . . . . . . . . . . . . . . . . . . . . . . . . . . . . . . ",
". . . . . . . . . . . . . . . . . . . . . . . . . . . . . . . . . . . . . . . . . . . . . . . . . . ",
". . . . . . . . . . . . . . . . . . . . . . . . . . . . . . . . . . . . . . . . . . . . . . . . . . "};
