/* XPM */
static char * BGa_xpm[] = {
"50 50 162 2",
"  	c None",
". 	c #CCCCCC",
"+ 	c #CBCBCB",
"@ 	c #CACACA",
"# 	c #C3C3C3",
"$ 	c #BEBEBE",
"% 	c #BABABA",
"& 	c #B6B6B6",
"* 	c #B1B1B1",
"= 	c #ACACAC",
"- 	c #ABABAB",
"; 	c #A2A2A2",
"> 	c #B4B4B4",
", 	c #C2C2C2",
"' 	c #8C8C8C",
") 	c #676767",
"! 	c #5C5C5C",
"~ 	c #535353",
"{ 	c #4A4A4A",
"] 	c #414141",
"^ 	c #8D8D8D",
"/ 	c #717171",
"( 	c #B2B2B2",
"_ 	c #C1C1C1",
": 	c #6D6D6D",
"< 	c #101010",
"[ 	c #020202",
"} 	c #010101",
"| 	c #474747",
"1 	c #AFAFAF",
"2 	c #333333",
"3 	c #272727",
"4 	c #737373",
"5 	c #0E0E0E",
"6 	c #000000",
"7 	c #C4C4C4",
"8 	c #797979",
"9 	c #121212",
"0 	c #3D3D3D",
"a 	c #A8A8A8",
"b 	c #292929",
"c 	c #7C7C7C",
"d 	c #BFBFBF",
"e 	c #C5C5C5",
"f 	c #808080",
"g 	c #151515",
"h 	c #373737",
"i 	c #A5A5A5",
"j 	c #050505",
"k 	c #939393",
"l 	c #C6C6C6",
"m 	c #868686",
"n 	c #1B1B1B",
"o 	c #A1A1A1",
"p 	c #404040",
"q 	c #919191",
"r 	c #C0C0C0",
"s 	c #C8C8C8",
"t 	c #1E1E1E",
"u 	c #2E2E2E",
"v 	c #9D9D9D",
"w 	c #C9C9C9",
"x 	c #929292",
"y 	c #232323",
"z 	c #2A2A2A",
"A 	c #989898",
"B 	c #979797",
"C 	c #282828",
"D 	c #262626",
"E 	c #9C9C9C",
"F 	c #222222",
"G 	c #8F8F8F",
"H 	c #1C1C1C",
"I 	c #8A8A8A",
"J 	c #C7C7C7",
"K 	c #383838",
"L 	c #181818",
"M 	c #858585",
"N 	c #AAAAAA",
"O 	c #3E3E3E",
"P 	c #141414",
"Q 	c #7F7F7F",
"R 	c #ADADAD",
"S 	c #444444",
"T 	c #111111",
"U 	c #7A7A7A",
"V 	c #494949",
"W 	c #0D0D0D",
"X 	c #757575",
"Y 	c #B5B5B5",
"Z 	c #505050",
"` 	c #0C0C0C",
" .	c #B8B8B8",
"..	c #565656",
"+.	c #040404",
"@.	c #090909",
"#.	c #6E6E6E",
"$.	c #BBBBBB",
"%.	c #5E5E5E",
"&.	c #0B0B0B",
"*.	c #646464",
"=.	c #060606",
"-.	c #707070",
";.	c #6B6B6B",
">.	c #0F0F0F",
",.	c #777777",
"'.	c #787878",
").	c #212121",
"!.	c #818181",
"~.	c #878787",
"{.	c #131313",
"].	c #171717",
"^.	c #030303",
"/.	c #8B8B8B",
"(.	c #3F3F3F",
"_.	c #909090",
":.	c #969696",
"<.	c #9E9E9E",
"[.	c #A3A3A3",
"}.	c #9F9F9F",
"|.	c #A4A4A4",
"1.	c #AEAEAE",
"2.	c #BDBDBD",
"3.	c #2D2D2D",
"4.	c #434343",
"5.	c #363636",
"6.	c #313131",
"7.	c #3A3A3A",
"8.	c #464646",
"9.	c #4B4B4B",
"0.	c #515151",
"a.	c #616161",
"b.	c #686868",
"c.	c #7E7E7E",
"d.	c #848484",
"e.	c #343434",
"f.	c #080808",
"g.	c #1F1F1F",
"h.	c #A6A6A6",
"i.	c #393939",
"j.	c #484848",
"k.	c #242424",
"l.	c #BCBCBC",
"m.	c #696969",
"n.	c #636363",
"o.	c #4F4F4F",
"p.	c #3C3C3C",
"q.	c #303030",
"r.	c #202020",
"s.	c #070707",
"t.	c #9B9B9B",
"u.	c #B7B7B7",
"v.	c #A9A9A9",
"w.	c #959595",
"x.	c #898989",
"y.	c #838383",
"z.	c #767676",
"A.	c #626262",
"B.	c #555555",
"C.	c #4E4E4E",
"D.	c #353535",
"E.	c #B0B0B0",
". . . . . . . . . . . . . . . . . . . . . . . . . . . . . . . . . . . . . . . . . . . . . . . . . . ",
". . . . . . . . . . . . . . . . . . . . . . . . . . . . . . . . . . . . . . . . . . . . . . . . . . ",
". . . . . . . . . . . . . . . . . . . . . . . . . . . . . . . . . . . . . . . . . . . . . . . . . . ",
". . . . . . . . . . . . . . . . . . . . . . . . . . . . . . . . . . . . . . . . . . . . . . . . . . ",
". . . . . . . . . . . . . . . . . . . . . . . . . . . . . . . . . . . . . . . . . . . . . . . . . . ",
". . . . . . . . . . . . . . . . . . . . . . . . . . . . . . . . . . . . . . . . . . . . . . . . . . ",
". . . . . . . . . . . + + + . . . . . . . . . . . . . . . . . . . . . . . @ + . . . . . . . . . . . ",
". . . . . . + # $ % & * = - # . . . . . . . . . . . . . . . . . . . . . # ; > @ . . . . . . . . . . ",
". . . . . . , ' ) ! ~ { ] ! > . . . . . . . . . . . . . . . . . . . . , ^ ] / ( @ . . . . . . . . . ",
". . . . . . _ : < [ } } [ | 1 + . . . . . . . . . . . . . . . . . . # ^ 2 [ 3 / ( @ . . . . . . . . ",
". . . . . . , 4 5 6 6 6 } ] = + . . . . . . . . . . . . . . . . . , ^ 2 [ 6 } 3 / ( @ . . . . . . . ",
". . . . . . 7 8 9 6 6 6 } 0 a + . . . . . . . . . . . . . . . . # ^ 2 [ 6 6 6 } b c d . . . . . . . ",
". . . . . . e f g 6 6 6 6 h i @ . . . . . . . . . . . . . . . # ^ 2 } 6 6 6 6 j ] k # . . . . . . . ",
". . . . . . l m n 6 6 6 6 2 o @ . . . . . . . . . . . . . . , ^ 2 [ 6 6 6 6 j p q r + . . . . . . . ",
". . . . . . s ' t 6 6 6 6 u v @ . . . . . . . . . . . . . # ^ 2 } 6 6 6 6 j p q r + . . . . . . . . ",
". . . . . . w x y 6 6 6 6 z A @ . . . . . . . . . . . . , ^ 2 [ 6 6 6 6 j ] q r + . . . . . . . . . ",
". . . . . . w B C 6 6 6 6 D k w . . . . . . . . . . . # ^ 2 [ 6 6 6 6 j p q r + . . . . . . . . . . ",
". . . . . . w E u 6 6 6 6 F G s . . . . . . . . . . # ^ 2 } 6 6 6 6 j ] q r + . . . . . . . . . . . ",
". . . . . . @ o 2 6 6 6 6 H I J . . . . . . . . . , ^ 2 [ 6 6 6 6 j p q r + . . . . . . . . . . . . ",
". . . . . . + i K 6 6 6 6 L M J . . . . . . . . # ^ 2 } 6 6 6 6 j p q r + . . . . . . . . . . . . . ",
". . . . . . + N O 6 6 6 6 P Q e . . . . . . . , ^ 2 [ 6 6 6 6 j ] q r + . . . . . . . . . . . . . . ",
". . . . . . + R S } 6 6 6 T U 7 . . . . . . # ^ 2 [ 6 6 6 6 j p q r + . . . . . . . . . . . . . . . ",
". . . . . . + * V } 6 6 6 W X # . . . . . # ^ 2 } 6 6 6 6 j ] q r + . . . . . . . . . . . . . . . . ",
". . . . . . . Y Z } 6 6 6 ` / , . . . . , ^ 2 [ 6 6 6 6 j p q r + . . . . . . . . . . . . . . . . . ",
". . . . . . .  ...+.6 6 6 @.#._ . . . # ^ 2 } 6 6 6 6 j p q r + . . . . . . . . . . . . . . . . . . ",
". . . . . . . $.%.+.6 6 6 &.#._ . . , ^ 2 [ 6 6 6 6 j ] q r + . . . . . . . . . . . . . . . . . . . ",
". . . . . . . $ *.=.6 6 6 &.-., . # ^ 2 [ 6 6 6 6 j p q r + . . . . . . . . . . . . . . . . . . . . ",
". . . . . . . r ;.@.6 6 6 >.,.# # ^ 2 } 6 6 6 6 j ] q r + . . . . . . . . . . . . . . . . . . . . . ",
". . . . . . . , / W 6 6 6 g f $.^ 2 [ 6 6 6 6 j p q r + . . . . . . . . . . . . . . . . . . . . . . ",
". . . . . . . 7 '.5 6 6 6 ).!.~.2 } 6 6 6 6 j p q r + . . . . . . . . . . . . . . . . . . . . . . . ",
". . . . . . . e Q {.6 6 6 L | b } 6 6 6 6 j ] q r + . . . . . . . . . . . . . . . . . . . . . . . . ",
". . . . . . . l M ].6 6 6 6 ^.6 6 6 6 6 j p q r + . . . . . . . . . . . . . . . . . . . . . . . . . ",
". . . . . . . s /.H 6 6 6 6 6 6 6 6 6 j ] q r + . . . . . . . . . . . . . . . . . . . . . . . . . . ",
". . . . . . . w q F 6 6 6 6 6 6 6 6 +.(._.$ @ @ @ @ + + + + . . . . . . . . . . . . . . . . . . . . ",
". . . . . . . w :.3 6 6 6 6 6 6 6 6 y 4 <.[.}.<.}.o |.a - 1.( Y  .% 2.d _ # 7 e l s + . . . . . . . ",
". . . . . . . @ E 3.6 6 6 6 6 6 6 6 ].O 4.5.u 3.u 6.5.7.p 8.9.0...! a.b.: 4 8 c.d.<.l . . . . . . . ",
". . . . . . . @ o e.6 6 6 6 6 6 6 6 6 [ } 6 6 6 6 6 6 6 6 [ [ [ [ ^.j f.&.5 9 g g.U 7 . . . . . . . ",
". . . . . . . + h.i.6 6 6 6 6 6 6 6 6 6 6 6 6 6 6 6 6 6 6 6 6 6 6 6 6 6 6 6 6 6 g !.l . . . . . . . ",
". . . . . . . + N (.} 6 6 6 6 6 6 6 6 6 6 6 6 6 6 6 6 6 6 6 6 6 6 6 6 6 6 6 6 6 n I J . . . . . . . ",
". . . . . . . + 1.j.P T W @.=.+.^.[ [ } } } 6 6 6 6 6 6 6 6 6 6 6 6 6 6 6 6 6 6 k.k w . . . . . . . ",
". . . . . . . + l.^ c X -.m.n.! ..o.{ 4.p.5.q.z k.r.H L P >.@.s.+.+.[ [ } 6 6 } 3.t.@ . . . . . . . ",
". . . . . . . . @ l e # _ d 2.% u.> * R v.i }.t.w.G x.y.c z.#.m.A.! B.C.j.] p.D.| i + . . . . . . . ",
". . . . . . . . . . . . . . . . . . . + + + @ @ w s s J e # _ d 2.% u.> E.= v.|.[.l.. . . . . . . . ",
". . . . . . . . . . . . . . . . . . . . . . . . . . . . . . . . . . . . + + + + @ + . . . . . . . . ",
". . . . . . . . . . . . . . . . . . . . . . . . . . . . . . . . . . . . . . . . . . . . . . . . . . ",
". . . . . . . . . . . . . . . . . . . . . . . . . . . . . . . . . . . . . . . . . . . . . . . . . . ",
". . . . . . . . . . . . . . . . . . . . . . . . . . . . . . . . . . . . . . . . . . . . . . . . . . ",
". . . . . . . . . . . . . . . . . . . . . . . . . . . . . . . . . . . . . . . . . . . . . . . . . . ",
". . . . . . . . . . . . . . . . . . . . . . . . . . . . . . . . . . . . . . . . . . . . . . . . . . ",
". . . . . . . . . . . . . . . . . . . . . . . . . . . . . . . . . . . . . . . . . . . . . . . . . . "};
