/* XPM */
static char * HDa_xpm[] = {
"50 50 162 2",
"  	c None",
". 	c #CCCCCC",
"+ 	c #CBCBCB",
"@ 	c #CACACA",
"# 	c #BCBCBC",
"$ 	c #A3A3A3",
"% 	c #A4A4A4",
"& 	c #A9A9A9",
"* 	c #ACACAC",
"= 	c #B0B0B0",
"- 	c #B4B4B4",
"; 	c #B7B7B7",
"> 	c #BABABA",
", 	c #BDBDBD",
"' 	c #BFBFBF",
") 	c #C1C1C1",
"! 	c #C3C3C3",
"~ 	c #C5C5C5",
"{ 	c #C7C7C7",
"] 	c #C8C8C8",
"^ 	c #C9C9C9",
"/ 	c #A5A5A5",
"( 	c #474747",
"_ 	c #353535",
": 	c #3C3C3C",
"< 	c #414141",
"[ 	c #484848",
"} 	c #4E4E4E",
"| 	c #555555",
"1 	c #5C5C5C",
"2 	c #626262",
"3 	c #696969",
"4 	c #6E6E6E",
"5 	c #767676",
"6 	c #7C7C7C",
"7 	c #838383",
"8 	c #898989",
"9 	c #8F8F8F",
"0 	c #959595",
"a 	c #9B9B9B",
"b 	c #9F9F9F",
"c 	c #ADADAD",
"d 	c #B1B1B1",
"e 	c #C6C6C6",
"f 	c #2D2D2D",
"g 	c #010101",
"h 	c #000000",
"i 	c #020202",
"j 	c #040404",
"k 	c #070707",
"l 	c #090909",
"m 	c #0F0F0F",
"n 	c #141414",
"o 	c #181818",
"p 	c #1C1C1C",
"q 	c #202020",
"r 	c #242424",
"s 	c #2A2A2A",
"t 	c #303030",
"u 	c #363636",
"v 	c #434343",
"w 	c #4A4A4A",
"x 	c #4F4F4F",
"y 	c #565656",
"z 	c #636363",
"A 	c #707070",
"B 	c #757575",
"C 	c #8D8D8D",
"D 	c #939393",
"E 	c #030303",
"F 	c #060606",
"G 	c #0D0D0D",
"H 	c #111111",
"I 	c #AEAEAE",
"J 	c #8A8A8A",
"K 	c #1B1B1B",
"L 	c #3F3F3F",
"M 	c #AAAAAA",
"N 	c #818181",
"O 	c #151515",
"P 	c #393939",
"Q 	c #A6A6A6",
"R 	c #C4C4C4",
"S 	c #7A7A7A",
"T 	c #1F1F1F",
"U 	c #121212",
"V 	c #0E0E0E",
"W 	c #0B0B0B",
"X 	c #080808",
"Y 	c #050505",
"Z 	c #343434",
"` 	c #A1A1A1",
" .	c #9E9E9E",
"..	c #848484",
"+.	c #7E7E7E",
"@.	c #797979",
"#.	c #737373",
"$.	c #6D6D6D",
"%.	c #686868",
"&.	c #616161",
"*.	c #515151",
"=.	c #4B4B4B",
"-.	c #464646",
";.	c #404040",
">.	c #3A3A3A",
",.	c #313131",
"'.	c #2E2E2E",
").	c #3E3E3E",
"!.	c #171717",
"~.	c #9C9C9C",
"{.	c #B8B8B8",
"].	c #B5B5B5",
"^.	c #B2B2B2",
"/.	c #ABABAB",
"(.	c #A8A8A8",
"_.	c #232323",
":.	c #272727",
"<.	c #969696",
"[.	c #BEBEBE",
"}.	c #909090",
"|.	c #222222",
"1.	c #919191",
"2.	c #C0C0C0",
"3.	c #8B8B8B",
"4.	c #858585",
"5.	c #292929",
"6.	c #131313",
"7.	c #7F7F7F",
"8.	c #333333",
"9.	c #878787",
"0.	c #212121",
"a.	c #787878",
"b.	c #BBBBBB",
"c.	c #808080",
"d.	c #717171",
"e.	c #C2C2C2",
"f.	c #777777",
"g.	c #6B6B6B",
"h.	c #646464",
"i.	c #5E5E5E",
"j.	c #0C0C0C",
"k.	c #505050",
"l.	c #494949",
"m.	c #444444",
"n.	c #383838",
"o.	c #262626",
"p.	c #282828",
"q.	c #979797",
"r.	c #989898",
"s.	c #929292",
"t.	c #9D9D9D",
"u.	c #1E1E1E",
"v.	c #8C8C8C",
"w.	c #868686",
"x.	c #373737",
"y.	c #3D3D3D",
"z.	c #AFAFAF",
"A.	c #101010",
"B.	c #535353",
"C.	c #676767",
"D.	c #A2A2A2",
"E.	c #B6B6B6",
". . . . . . . . . . . . . . . . . . . . . . . . . . . . . . . . . . . . . . . . . . . . . . . . . . ",
". . . . . . . . . . . . . . . . . . . . . . . . . . . . . . . . . . . . . . . . . . . . . . . . . . ",
". . . . . . . . . . . . . . . . . . . . . . . . . . . . . . . . . . . . . . . . . . . . . . . . . . ",
". . . . . . . . . . . . . . . . . . . . . . . . . . . . . . . . . . . . . . . . . . . . . . . . . . ",
". . . . . . . . . . . . . . . . . . . . . . . . . . . . . . . . . . . . . . . . . . . . . . . . . . ",
". . . . . . . . . . . . . . . . . . . . . . . . . . . . . . . . . . . . . . . . . . . . . . . . . . ",
". . . . . . . . + @ + + + + . . . . . . . . . . . . . . . . . . . . . . . . . . . . . . . . . . . . ",
". . . . . . . . # $ % & * = - ; > , ' ) ! ~ { ] ] ^ @ @ + + + . . . . . . . . . . . . . . . . . . . ",
". . . . . . . + / ( _ : < [ } | 1 2 3 4 5 6 7 8 9 0 a b / & c d - ; > , ' ) ! ~ e @ . . . . . . . . ",
". . . . . . . @ a f g h h g i i j j k l m n o p q r s t u : v w x y 1 z 3 A B 6 C # + . . . . . . . ",
". . . . . . . ^ D r h h h h h h h h h h h h h h h h h h g g g i i E j F l G H n [ I + . . . . . . . ",
". . . . . . . { J K h h h h h h h h h h h h h h h h h h h h h h h h h h h h h g L M + . . . . . . . ",
". . . . . . . e N O h h h h h h h h h h h h h h h h h h h h h h h h h h h h h h P Q + . . . . . . . ",
". . . . . . . R S T O U V W X Y E i i i i h h h h h h h h g i h h h h h h h h h Z ` @ . . . . . . . ",
". . . . . . . e  ...+.@.#.$.%.&.1 y *.=.-.;.>.u ,.'.f '.u v ).!.h h h h h h h h f ~.@ . . . . . . . ",
". . . . . . . + ] e ~ R ! ) ' , > {.].^.I /.(.% ` b  .b $  .#._.h h h h h h h h :.<.^ . . . . . . . ",
". . . . . . . . . . . . . . . . . . . . + + + + @ @ @ @ [.}.L j h h h h h h h h |.1.^ . . . . . . . ",
". . . . . . . . . . . . . . . . . . . . . . . . . . + 2.1.< Y h h h h h h h h h p 3.] . . . . . . . ",
". . . . . . . . . . . . . . . . . . . . . . . . . + 2.1.;.Y h h h h h E h h h h !.4.e . . . . . . . ",
". . . . . . . . . . . . . . . . . . . . . . . . + 2.1.< Y h h h h g 5.( o h h h 6.7.~ . . . . . . . ",
". . . . . . . . . . . . . . . . . . . . . . . + 2.1.;.Y h h h h g 8.9.N 0.h h h V a.R . . . . . . . ",
". . . . . . . . . . . . . . . . . . . . . . + 2.1.;.Y h h h h i 8.C b.c.O h h h G d.e.. . . . . . . ",
". . . . . . . . . . . . . . . . . . . . . + 2.1.< Y h h h h g 8.C ! ! f.m h h h l g.2.. . . . . . . ",
". . . . . . . . . . . . . . . . . . . . + 2.1.;.Y h h h h i 8.C ! . e.A W h h h F h.[.. . . . . . . ",
". . . . . . . . . . . . . . . . . . . + 2.1.< Y h h h h i 8.C e.. . ) 4 W h h h j i.b.. . . . . . . ",
". . . . . . . . . . . . . . . . . . + 2.1.;.Y h h h h g 8.C ! . . . ) 4 l h h h j y {.. . . . . . . ",
". . . . . . . . . . . . . . . . . + 2.1.;.Y h h h h i 8.C e.. . . . e.d.j.h h h g k.].. . . . . . . ",
". . . . . . . . . . . . . . . . + 2.1.< Y h h h h g 8.C ! . . . . . ! B G h h h g l.d + . . . . . . ",
". . . . . . . . . . . . . . . + 2.1.;.Y h h h h i 8.C ! . . . . . . R S H h h h g m.c + . . . . . . ",
". . . . . . . . . . . . . . + 2.1.< Y h h h h i 8.C e.. . . . . . . ~ 7.n h h h h ).M + . . . . . . ",
". . . . . . . . . . . . . + 2.1.;.Y h h h h g 8.C ! . . . . . . . . { 4.o h h h h n./ + . . . . . . ",
". . . . . . . . . . . . + 2.1.;.Y h h h h i 8.C e.. . . . . . . . . { J p h h h h 8.` @ . . . . . . ",
". . . . . . . . . . . + 2.1.< Y h h h h g 8.C ! . . . . . . . . . . ] 9 |.h h h h '.~.^ . . . . . . ",
". . . . . . . . . . + 2.1.;.Y h h h h i 8.C ! . . . . . . . . . . . ^ D o.h h h h p.q.^ . . . . . . ",
". . . . . . . . . + 2.1.< Y h h h h i 8.C e.. . . . . . . . . . . . @ r.s h h h h _.s.^ . . . . . . ",
". . . . . . . . + 2.1.;.Y h h h h g 8.C ! . . . . . . . . . . . . . @ t.'.h h h h u.v.] . . . . . . ",
". . . . . . . + 2.1.;.Y h h h h i 8.C e.. . . . . . . . . . . . . . @ ` 8.h h h h K w.e . . . . . . ",
". . . . . . . ! D < Y h h h h g 8.C ! . . . . . . . . . . . . . . . @ / x.h h h h O c.~ . . . . . . ",
". . . . . . . ' 6 5.g h h h i 8.C ! . . . . . . . . . . . . . . . . + (.y.g h h h U @.R . . . . . . ",
". . . . . . . @ ^.d.:.g h i 8.C e.. . . . . . . . . . . . . . . . . + * < g h h h V #.e.. . . . . . ",
". . . . . . . . @ ^.d.:.i 8.C ! . . . . . . . . . . . . . . . . . . + z.( i g g i A.$.) . . . . . . ",
". . . . . . . . . @ ^.d.< C e.. . . . . . . . . . . . . . . . . . . . - 1 < w B.1 C.v.e.. . . . . . ",
". . . . . . . . . . @ - D.! . . . . . . . . . . . . . . . . . . . . . ! /.* d E.> [.! + . . . . . . ",
". . . . . . . . . . . + @ . . . . . . . . . . . . . . . . . . . . . . . + + + . . . . . . . . . . . ",
". . . . . . . . . . . . . . . . . . . . . . . . . . . . . . . . . . . . . . . . . . . . . . . . . . ",
". . . . . . . . . . . . . . . . . . . . . . . . . . . . . . . . . . . . . . . . . . . . . . . . . . ",
". . . . . . . . . . . . . . . . . . . . . . . . . . . . . . . . . . . . . . . . . . . . . . . . . . ",
". . . . . . . . . . . . . . . . . . . . . . . . . . . . . . . . . . . . . . . . . . . . . . . . . . ",
". . . . . . . . . . . . . . . . . . . . . . . . . . . . . . . . . . . . . . . . . . . . . . . . . . ",
". . . . . . . . . . . . . . . . . . . . . . . . . . . . . . . . . . . . . . . . . . . . . . . . . . "};
