/* XPM */
static char * HGa_xpm[] = {
"50 50 162 2",
"  	c None",
". 	c #CCCCCC",
"+ 	c #CBCBCB",
"@ 	c #CACACA",
"# 	c #C9C9C9",
"$ 	c #C8C8C8",
"% 	c #C7C7C7",
"& 	c #C5C5C5",
"* 	c #C3C3C3",
"= 	c #C1C1C1",
"- 	c #BFBFBF",
"; 	c #BDBDBD",
"> 	c #BABABA",
", 	c #B7B7B7",
"' 	c #B4B4B4",
") 	c #B0B0B0",
"! 	c #ACACAC",
"~ 	c #A9A9A9",
"{ 	c #A4A4A4",
"] 	c #A3A3A3",
"^ 	c #BCBCBC",
"/ 	c #C6C6C6",
"( 	c #B1B1B1",
"_ 	c #ADADAD",
": 	c #A5A5A5",
"< 	c #9F9F9F",
"[ 	c #9B9B9B",
"} 	c #959595",
"| 	c #8F8F8F",
"1 	c #898989",
"2 	c #838383",
"3 	c #7C7C7C",
"4 	c #767676",
"5 	c #6E6E6E",
"6 	c #696969",
"7 	c #626262",
"8 	c #5C5C5C",
"9 	c #555555",
"0 	c #4E4E4E",
"a 	c #484848",
"b 	c #414141",
"c 	c #3C3C3C",
"d 	c #353535",
"e 	c #474747",
"f 	c #8D8D8D",
"g 	c #757575",
"h 	c #707070",
"i 	c #636363",
"j 	c #565656",
"k 	c #4F4F4F",
"l 	c #4A4A4A",
"m 	c #434343",
"n 	c #363636",
"o 	c #303030",
"p 	c #2A2A2A",
"q 	c #242424",
"r 	c #202020",
"s 	c #1C1C1C",
"t 	c #181818",
"u 	c #141414",
"v 	c #0F0F0F",
"w 	c #090909",
"x 	c #070707",
"y 	c #040404",
"z 	c #020202",
"A 	c #010101",
"B 	c #000000",
"C 	c #2D2D2D",
"D 	c #AEAEAE",
"E 	c #111111",
"F 	c #0D0D0D",
"G 	c #060606",
"H 	c #030303",
"I 	c #939393",
"J 	c #AAAAAA",
"K 	c #3F3F3F",
"L 	c #1B1B1B",
"M 	c #8A8A8A",
"N 	c #A6A6A6",
"O 	c #393939",
"P 	c #151515",
"Q 	c #818181",
"R 	c #A1A1A1",
"S 	c #343434",
"T 	c #050505",
"U 	c #080808",
"V 	c #0B0B0B",
"W 	c #0E0E0E",
"X 	c #121212",
"Y 	c #1F1F1F",
"Z 	c #7A7A7A",
"` 	c #C4C4C4",
" .	c #9C9C9C",
"..	c #171717",
"+.	c #3E3E3E",
"@.	c #2E2E2E",
"#.	c #313131",
"$.	c #3A3A3A",
"%.	c #404040",
"&.	c #464646",
"*.	c #4B4B4B",
"=.	c #515151",
"-.	c #616161",
";.	c #686868",
">.	c #6D6D6D",
",.	c #737373",
"'.	c #797979",
").	c #7E7E7E",
"!.	c #848484",
"~.	c #9E9E9E",
"{.	c #969696",
"].	c #272727",
"^.	c #232323",
"/.	c #A8A8A8",
"(.	c #ABABAB",
"_.	c #B2B2B2",
":.	c #B5B5B5",
"<.	c #B8B8B8",
"[.	c #919191",
"}.	c #222222",
"|.	c #909090",
"1.	c #BEBEBE",
"2.	c #8B8B8B",
"3.	c #C0C0C0",
"4.	c #858585",
"5.	c #7F7F7F",
"6.	c #131313",
"7.	c #292929",
"8.	c #787878",
"9.	c #212121",
"0.	c #878787",
"a.	c #333333",
"b.	c #C2C2C2",
"c.	c #717171",
"d.	c #808080",
"e.	c #BBBBBB",
"f.	c #6B6B6B",
"g.	c #777777",
"h.	c #646464",
"i.	c #5E5E5E",
"j.	c #505050",
"k.	c #0C0C0C",
"l.	c #494949",
"m.	c #444444",
"n.	c #383838",
"o.	c #979797",
"p.	c #282828",
"q.	c #262626",
"r.	c #929292",
"s.	c #989898",
"t.	c #8C8C8C",
"u.	c #1E1E1E",
"v.	c #9D9D9D",
"w.	c #868686",
"x.	c #373737",
"y.	c #3D3D3D",
"z.	c #101010",
"A.	c #AFAFAF",
"B.	c #676767",
"C.	c #535353",
"D.	c #B6B6B6",
"E.	c #A2A2A2",
". . . . . . . . . . . . . . . . . . . . . . . . . . . . . . . . . . . . . . . . . . . . . . . . . . ",
". . . . . . . . . . . . . . . . . . . . . . . . . . . . . . . . . . . . . . . . . . . . . . . . . . ",
". . . . . . . . . . . . . . . . . . . . . . . . . . . . . . . . . . . . . . . . . . . . . . . . . . ",
". . . . . . . . . . . . . . . . . . . . . . . . . . . . . . . . . . . . . . . . . . . . . . . . . . ",
". . . . . . . . . . . . . . . . . . . . . . . . . . . . . . . . . . . . . . . . . . . . . . . . . . ",
". . . . . . . . . . . . . . . . . . . . . . . . . . . . . . . . . . . . . . . . . . . . . . . . . . ",
". . . . . . . . . . . . . . . . . . . . . . . . . . . . . . . . . . . . + + + + @ + . . . . . . . . ",
". . . . . . . . . . . . . . . . . . . + + + @ @ # $ $ % & * = - ; > , ' ) ! ~ { ] ^ . . . . . . . . ",
". . . . . . . . @ / & * = - ; > , ' ( _ ~ : < [ } | 1 2 3 4 5 6 7 8 9 0 a b c d e : + . . . . . . . ",
". . . . . . . + ^ f 3 g h 6 i 8 j k l m c n o p q r s t u v w x y y z z A B B A C [ @ . . . . . . . ",
". . . . . . . + D a u E F w G y H z z A A A B B B B B B B B B B B B B B B B B B q I # . . . . . . . ",
". . . . . . . + J K A B B B B B B B B B B B B B B B B B B B B B B B B B B B B B L M % . . . . . . . ",
". . . . . . . + N O B B B B B B B B B B B B B B B B B B B B B B B B B B B B B B P Q / . . . . . . . ",
". . . . . . . @ R S B B B B B B B B B z A B B B B B B B B z z z z H T U V W X P Y Z ` . . . . . . . ",
". . . . . . . @  .C B B B B B B B B ..+.m n @.C @.#.n $.%.&.*.=.j 8 -.;.>.,.'.).!.~./ . . . . . . . ",
". . . . . . . # {.].B B B B B B B B ^.,.~.] < ~.< R { /.(.D _.:.<.> ; - = * ` & / $ + . . . . . . . ",
". . . . . . . # [.}.B B B B B B B B y K |.1.@ @ @ @ + + + + . . . . . . . . . . . . . . . . . . . . ",
". . . . . . . $ 2.s B B B B B B B B B T b [.3.+ . . . . . . . . . . . . . . . . . . . . . . . . . . ",
". . . . . . . / 4...B B B B H B B B B B T %.[.3.+ . . . . . . . . . . . . . . . . . . . . . . . . . ",
". . . . . . . & 5.6.B B B t e 7.A B B B B T b [.3.+ . . . . . . . . . . . . . . . . . . . . . . . . ",
". . . . . . . ` 8.W B B B 9.Q 0.a.A B B B B T %.[.3.+ . . . . . . . . . . . . . . . . . . . . . . . ",
". . . . . . . b.c.F B B B P d.e.f a.z B B B B T %.[.3.+ . . . . . . . . . . . . . . . . . . . . . . ",
". . . . . . . 3.f.w B B B v g.* * f a.A B B B B T b [.3.+ . . . . . . . . . . . . . . . . . . . . . ",
". . . . . . . 1.h.G B B B V h b.. * f a.z B B B B T %.[.3.+ . . . . . . . . . . . . . . . . . . . . ",
". . . . . . . e.i.y B B B V 5 = . . b.f a.z B B B B T b [.3.+ . . . . . . . . . . . . . . . . . . . ",
". . . . . . . <.j y B B B w 5 = . . . * f a.A B B B B T %.[.3.+ . . . . . . . . . . . . . . . . . . ",
". . . . . . . :.j.A B B B k.c.b.. . . . b.f a.z B B B B T %.[.3.+ . . . . . . . . . . . . . . . . . ",
". . . . . . + ( l.A B B B F g * . . . . . * f a.A B B B B T b [.3.+ . . . . . . . . . . . . . . . . ",
". . . . . . + _ m.A B B B E Z ` . . . . . . * f a.z B B B B T %.[.3.+ . . . . . . . . . . . . . . . ",
". . . . . . + J +.B B B B u 5.& . . . . . . . b.f a.z B B B B T b [.3.+ . . . . . . . . . . . . . . ",
". . . . . . + : n.B B B B t 4.% . . . . . . . . * f a.A B B B B T %.[.3.+ . . . . . . . . . . . . . ",
". . . . . . @ R a.B B B B s M % . . . . . . . . . b.f a.z B B B B T %.[.3.+ . . . . . . . . . . . . ",
". . . . . . #  .@.B B B B }.| $ . . . . . . . . . . * f a.A B B B B T b [.3.+ . . . . . . . . . . . ",
". . . . . . # o.p.B B B B q.I # . . . . . . . . . . . * f a.z B B B B T %.[.3.+ . . . . . . . . . . ",
". . . . . . # r.^.B B B B p s.@ . . . . . . . . . . . . b.f a.z B B B B T b [.3.+ . . . . . . . . . ",
". . . . . . $ t.u.B B B B @.v.@ . . . . . . . . . . . . . * f a.A B B B B T %.[.3.+ . . . . . . . . ",
". . . . . . / w.L B B B B a.R @ . . . . . . . . . . . . . . b.f a.z B B B B T %.[.3.+ . . . . . . . ",
". . . . . . & d.P B B B B x.: @ . . . . . . . . . . . . . . . * f a.A B B B B T b I * . . . . . . . ",
". . . . . . ` '.X B B B A y./.+ . . . . . . . . . . . . . . . . * f a.z B B B A 7.3 - . . . . . . . ",
". . . . . . b.,.W B B B A b ! + . . . . . . . . . . . . . . . . . b.f a.z B A ].c._.@ . . . . . . . ",
". . . . . . = >.z.z A A z e A.+ . . . . . . . . . . . . . . . . . . * f a.z ].c._.@ . . . . . . . . ",
". . . . . . b.t.B.8 C.l b 8 ' . . . . . . . . . . . . . . . . . . . . b.f b c._.@ . . . . . . . . . ",
". . . . . . + * 1.> D.( ! (.* . . . . . . . . . . . . . . . . . . . . . * E.' @ . . . . . . . . . . ",
". . . . . . . . . . . + + + . . . . . . . . . . . . . . . . . . . . . . . @ + . . . . . . . . . . . ",
". . . . . . . . . . . . . . . . . . . . . . . . . . . . . . . . . . . . . . . . . . . . . . . . . . ",
". . . . . . . . . . . . . . . . . . . . . . . . . . . . . . . . . . . . . . . . . . . . . . . . . . ",
". . . . . . . . . . . . . . . . . . . . . . . . . . . . . . . . . . . . . . . . . . . . . . . . . . ",
". . . . . . . . . . . . . . . . . . . . . . . . . . . . . . . . . . . . . . . . . . . . . . . . . . ",
". . . . . . . . . . . . . . . . . . . . . . . . . . . . . . . . . . . . . . . . . . . . . . . . . . ",
". . . . . . . . . . . . . . . . . . . . . . . . . . . . . . . . . . . . . . . . . . . . . . . . . . "};
